<?xml version="1.0" encoding="utf-8"?>

<!DOCTYPE svg PUBLIC "-//W3C//DTD SVG 1.1//EN" "http://www.w3.org/Graphics/SVG/1.1/DTD/svg11.dtd">
<!-- Uploaded to: SVG Repo, www.svgrepo.com, Generator: SVG Repo Mixer Tools -->
<svg height="800px" width="800px" version="1.1" id="_x32_" xmlns="http://www.w3.org/2000/svg" xmlns:xlink="http://www.w3.org/1999/xlink" 
	 viewBox="0 0 512 512"  xml:space="preserve">
<style type="text/css">
	.st0{fill:#000000;}
</style>
<g>
	<path class="st0" d="M359.327,489.245c-30.346,0-58.864-11.816-80.312-33.265c-44.288-44.297-44.288-116.377-0.009-160.673
		c5-4.995,10.409-9.418,16.112-13.337c0-0.854,0-1.708,0-2.553c11.356-12.62,15.489-11.049,25.103-60.597
		c19.434,0,18.169-25.248,27.339-47.644c7.471-18.238,1.213-25.632-5.08-28.654c5.149-66.462,5.149-112.236-70.292-126.436
		C244.845-7.351,203.584,0.606,184.03,4.517c-19.535,3.911-37.159,0-37.159,0l3.356,31.49
		c-28.607,34.332-14.301,80.106-18.908,106.916c-6.002,3.27-11.415,10.809-4.269,28.253c9.166,22.396,7.906,47.644,27.34,47.644
		c9.61,49.548,13.742,47.977,25.107,60.597c0,15.147,0,31.566,0,40.403c0,25.248-8.581,25.683-28.134,36.612
		c-47.14,26.349-108.569,41.658-119.575,124.01c-2.014,15.062,84.47,31.506,205.517,31.558
		c73.148-0.034,133.634-6.054,169.631-14.131c-4.927-5.541-9.649-10.792-12.722-14.105
		C382.977,487.376,371.143,489.245,359.327,489.245z"/>
	<path class="st0" d="M473.706,461.94c0,0-26.81-23.455-33.222-29.859c-9.418-9.358-13.183-13.874-9.862-21.482
		c14.541-29.645,9.512-66.436-15.138-91.087c-31.003-31.003-81.259-31.003-112.254,0c-30.998,31.002-30.998,81.251,0,112.262
		c24.633,24.641,61.442,29.67,91.07,15.138c7.615-3.321,12.132,0.444,21.499,9.862c6.404,6.412,29.85,33.222,29.85,33.222
		c12.158,12.15,21.516,4.67,27.126-0.931C478.384,483.447,485.864,474.09,473.706,461.94z M391.858,408.14
		c-17.957,17.939-47.046,17.939-64.994,0c-17.956-17.948-17.956-47.046,0-64.994c17.947-17.939,47.037-17.939,64.994,0
		C409.805,361.094,409.805,390.192,391.858,408.14z"/>
</g>
</svg>